BluRay Info

The Lord of the Rings: The Fellowship of the Ring


DISC INFO:

Disc Title: DISC1
Disc Size: 35 120 849 581 bytes
Protection: AACS
BD-Java: Yes
BDInfo: 0.5.6

PLAYLIST REPORT:

Name: 00100.MPLS
Length: 1:45:43 (h:m:s)
Size: 34 728 480 768 bytes
Total Bitrate: 43,80 Mbps

VIDEO:

Codec Bitrate Description
----- ------- -----------
MPEG-4 AVC Video 29857 kbps 1080p / 23,976 fps / 16:9 / High Profile 4.1

AUDIO:

Codec Language Bitrate Description
----- -------- ------- -----------
DTS-HD Master Audio English 4718 kbps 6.1 / 48 kHz / 4718 kbps / 24-bit (DTS Core: 6.1-ES / 48 kHz / 1509 kbps / 24-bit)
DTS-HD Master Audio Russian 4761 kbps 6.1 / 48 kHz / 4761 kbps / 24-bit (DTS Core: 6.1-ES / 48 kHz / 1509 kbps / 24-bit)
Dolby Digital Audio Russian 448 kbps 5.1 / 48 kHz / 448 kbps / DN -4dB
Dolby Digital EX Audio Russian 448 kbps 5.1-EX / 48 kHz / 448 kbps / DN -4dB
Dolby Digital Audio English 192 kbps 2.0 / 48 kHz / 192 kbps / DN -4dB / Dolby Surround
Dolby Digital Audio English 192 kbps 2.0 / 48 kHz / 192 kbps / DN -4dB / Dolby Surround
Dolby Digital Audio English 192 kbps 2.0 / 48 kHz / 192 kbps / DN -4dB / Dolby Surround
Dolby Digital Audio English 192 kbps 2.0 / 48 kHz / 192 kbps / DN -4dB / Dolby Surround

SUBTITLES:

Codec Language Bitrate Description
----- -------- ------- -----------
Presentation Graphics English 25,799 kbps
Presentation Graphics English 5,146 kbps
Presentation Graphics English 7,033 kbps
Presentation Graphics English 0,396 kbps
Presentation Graphics English 2,937 kbps
Presentation Graphics English 4,395 kbps
Presentation Graphics Chinese 21,348 kbps
Presentation Graphics Chinese 20,299 kbps
Presentation Graphics Chinese 0,009 kbps
Presentation Graphics Chinese 0,009 kbps
Presentation Graphics Chinese 0,009 kbps
Presentation Graphics Chinese 0,009 kbps
Presentation Graphics Czech 21,470 kbps
Presentation Graphics Hebrew 17,533 kbps
Presentation Graphics Korean 20,034 kbps
Presentation Graphics Korean 0,009 kbps
Presentation Graphics Korean 0,009 kbps
Presentation Graphics Korean 0,009 kbps
Presentation Graphics Korean 0,009 kbps
Presentation Graphics Polish 19,869 kbps
Presentation Graphics Polish 0,009 kbps
Presentation Graphics Russian 30,042 kbps
Presentation Graphics Russian 30,899 kbps
Presentation Graphics Russian 0,956 kbps

FILES:

Name Time In Length Size Total Bitrate
---- ------- ------ ---- -------------
00000.M2TS 0:00:00.000 1:45:43.420 34 728 480 768 43 798

CHAPTERS:

Number Time In Length Avg Video Rate Max 1-Sec Rate Max 1-Sec Time Max 5-Sec Rate Max 5-Sec Time Max 10Sec Rate Max 10Sec Time Avg Frame Size Max Frame Size Max Frame Time
------ ------- ------ -------------- -------------- -------------- -------------- -------------- -------------- -------------- -------------- -------------- --------------
1 0:00:00.000 0:07:36.789 26 475 kbps 49 020 kbps 00:00:02.001 35 698 kbps 00:01:41.309 34 445 kbps 00:01:14.282 138 015 bytes 674 221 bytes 00:01:44.687
2 0:07:36.789 0:02:58.761 31 135 kbps 38 930 kbps 00:09:52.883 34 656 kbps 00:07:38.291 33 448 kbps 00:09:04.126 162 322 bytes 437 182 bytes 00:09:04.168
3 0:10:35.551 0:05:04.303 31 038 kbps 43 363 kbps 00:11:40.366 34 531 kbps 00:14:24.947 33 485 kbps 00:14:24.947 161 818 bytes 501 144 bytes 00:11:11.921
4 0:15:39.855 0:04:18.633 30 592 kbps 38 067 kbps 00:16:04.505 33 339 kbps 00:17:22.624 32 263 kbps 00:17:16.994 159 494 bytes 447 965 bytes 00:15:45.653
5 0:19:58.488 0:05:34.125 30 877 kbps 42 929 kbps 00:23:05.592 35 003 kbps 00:23:31.284 33 597 kbps 00:23:31.201 160 976 bytes 583 550 bytes 00:23:06.385
6 0:25:32.614 0:04:24.764 30 114 kbps 37 967 kbps 00:29:43.114 32 000 kbps 00:29:33.938 31 358 kbps 00:28:01.971 156 999 bytes 338 380 bytes 00:29:47.118
7 0:29:57.378 0:02:13.299 30 262 kbps 34 710 kbps 00:29:59.005 31 668 kbps 00:31:23.881 30 936 kbps 00:30:29.869 157 773 bytes 333 585 bytes 00:29:59.881
8 0:32:10.678 0:02:41.119 29 377 kbps 35 858 kbps 00:34:45.291 32 083 kbps 00:33:20.206 30 849 kbps 00:34:10.381 153 159 bytes 438 188 bytes 00:32:45.046
9 0:34:51.798 0:01:26.377 30 450 kbps 37 126 kbps 00:35:04.268 32 075 kbps 00:35:15.238 31 538 kbps 00:35:21.285 158 754 bytes 437 962 bytes 00:36:14.797
10 0:36:18.176 0:08:45.983 30 329 kbps 41 872 kbps 00:36:50.791 33 545 kbps 00:36:50.791 32 341 kbps 00:39:19.607 158 123 bytes 498 249 bytes 00:43:22.975
11 0:45:04.159 0:01:40.141 29 513 kbps 36 085 kbps 00:45:23.512 31 602 kbps 00:45:20.217 30 417 kbps 00:45:06.495 153 865 bytes 429 549 bytes 00:45:20.259
12 0:46:44.301 0:04:37.110 30 688 kbps 38 574 kbps 00:50:45.500 33 010 kbps 00:50:45.459 31 875 kbps 00:48:53.597 159 992 bytes 565 495 bytes 00:47:26.677
13 0:51:21.411 0:03:51.022 30 645 kbps 40 198 kbps 00:54:55.125 34 582 kbps 00:55:01.798 33 207 kbps 00:55:01.548 159 770 bytes 542 356 bytes 00:53:21.823
14 0:55:12.434 0:02:17.637 29 449 kbps 37 761 kbps 00:56:17.457 32 039 kbps 00:56:22.087 31 001 kbps 00:56:22.921 153 535 bytes 367 241 bytes 00:55:20.483
15 0:57:30.071 0:06:01.444 29 582 kbps 46 066 kbps 00:58:45.021 33 914 kbps 00:58:32.926 32 605 kbps 00:58:26.127 154 229 bytes 407 368 bytes 00:58:45.230
16 1:03:31.516 0:03:44.599 29 882 kbps 44 454 kbps 01:04:40.751 33 035 kbps 01:06:08.172 32 085 kbps 01:06:05.086 155 792 bytes 502 673 bytes 01:05:33.763
17 1:07:16.115 0:01:37.472 29 717 kbps 37 545 kbps 01:07:57.823 31 705 kbps 01:07:18.409 31 290 kbps 01:07:19.201 154 932 bytes 372 974 bytes 01:07:53.068
18 1:08:53.587 0:01:42.352 29 732 kbps 39 449 kbps 01:09:32.418 33 586 kbps 01:09:28.497 32 206 kbps 01:09:24.702 155 008 bytes 370 609 bytes 01:09:28.789
19 1:10:35.940 0:04:39.445 29 794 kbps 39 833 kbps 01:13:03.378 33 285 kbps 01:13:00.084 32 041 kbps 01:14:14.158 155 331 bytes 398 388 bytes 01:12:08.532
20 1:15:15.385 0:02:31.234 29 623 kbps 39 416 kbps 01:17:03.994 34 229 kbps 01:17:12.669 32 170 kbps 01:17:12.544 154 443 bytes 349 217 bytes 01:17:34.316
21 1:17:46.620 0:06:24.926 30 071 kbps 42 368 kbps 01:23:06.815 33 587 kbps 01:21:46.109 32 586 kbps 01:22:12.052 156 778 bytes 386 362 bytes 01:19:12.038
22 1:24:11.546 0:02:00.954 29 383 kbps 36 588 kbps 01:24:16.426 32 037 kbps 01:24:15.008 31 478 kbps 01:24:14.924 153 190 bytes 382 602 bytes 01:24:35.153
23 1:26:12.500 0:03:29.083 30 212 kbps 36 358 kbps 01:27:39.003 32 395 kbps 01:27:45.718 32 048 kbps 01:27:45.802 157 513 bytes 505 355 bytes 01:27:05.595
24 1:29:41.584 0:03:33.087 30 048 kbps 39 939 kbps 01:31:58.638 32 795 kbps 01:31:03.583 32 374 kbps 01:30:59.787 156 656 bytes 530 897 bytes 01:29:42.377
25 1:33:14.672 0:02:39.409 29 617 kbps 38 845 kbps 01:33:27.143 32 399 kbps 01:33:37.111 31 390 kbps 01:33:36.902 154 407 bytes 360 368 bytes 01:35:05.116
26 1:35:54.081 0:01:38.890 29 056 kbps 36 313 kbps 01:36:36.624 31 146 kbps 01:36:11.098 30 708 kbps 01:36:06.260 151 484 bytes 424 703 bytes 01:37:32.972
27 1:37:32.972 0:08:10.448 29 671 kbps 38 321 kbps 01:41:19.490 32 500 kbps 01:43:41.840 31 201 kbps 01:43:36.793 154 719 bytes 504 468 bytes 01:37:37.101

STREAM DIAGNOSTICS:

File PID Type Codec Language Seconds Bitrate Bytes Packets
---- --- ---- ----- -------- -------------- -------------- ------------- -----
00000.M2TS 4113 (0x1011) 0x1B AVC 6343,337 29 857 23 674 205 975 128 753 365
00000.M2TS 4352 (0x1100) 0x86 DTS-HD MA eng (English) 6343,337 4 718 3 740 874 228 21 319 814
00000.M2TS 4353 (0x1101) 0x81 AC3 rus (Russian) 6343,337 448 355 172 608 1 981 990
00000.M2TS 4354 (0x1102) 0x86 DTS-HD MA rus (Russian) 6343,337 4 761 3 775 427 676 21 508 131
00000.M2TS 4355 (0x1103) 0x81 AC3 eng (English) 6343,337 192 152 216 832 990 995
00000.M2TS 4356 (0x1104) 0x81 AC3 eng (English) 6343,337 192 152 216 832 990 995
00000.M2TS 4357 (0x1105) 0x81 AC3 eng (English) 6343,337 192 152 216 832 990 995
00000.M2TS 4358 (0x1106) 0x81 AC3 eng (English) 6343,337 192 152 216 832 990 995
00000.M2TS 4359 (0x1107) 0x81 AC3-EX rus (Russian) 6343,337 448 355 172 608 1 981 990
00000.M2TS 4608 (0x1200) 0x90 PGS eng (English) 6343,337 26 20 456 930 118 297
00000.M2TS 4609 (0x1201) 0x90 PGS zho (Chinese) 6343,337 21 16 927 120 98 768
00000.M2TS 4610 (0x1202) 0x90 PGS kor (Korean) 6343,337 20 15 885 320 93 088
00000.M2TS 4611 (0x1203) 0x90 PGS zho (Chinese) 6343,337 20 16 096 027 94 156
00000.M2TS 4612 (0x1204) 0x90 PGS ces (Czech) 6343,337 21 17 023 907 99 203
00000.M2TS 4613 (0x1205) 0x90 PGS heb (Hebrew) 6343,337 18 13 902 421 82 229
00000.M2TS 4614 (0x1206) 0x90 PGS pol (Polish) 6343,337 20 15 754 743 92 242
00000.M2TS 4615 (0x1207) 0x90 PGS rus (Russian) 6343,337 30 23 821 474 136 975
00000.M2TS 4616 (0x1208) 0x90 PGS rus (Russian) 6343,337 31 24 500 388 140 788
00000.M2TS 4617 (0x1209) 0x90 PGS eng (English) 6343,337 4 3 484 870 28 030
00000.M2TS 4618 (0x120A) 0x90 PGS zho (Chinese) 6343,337 0 6 762 44
00000.M2TS 4619 (0x120B) 0x90 PGS kor (Korean) 6343,337 0 6 762 44
00000.M2TS 4620 (0x120C) 0x90 PGS eng (English) 6343,337 3 2 329 083 17 954
00000.M2TS 4621 (0x120D) 0x90 PGS zho (Chinese) 6343,337 0 6 762 44
00000.M2TS 4622 (0x120E) 0x90 PGS kor (Korean) 6343,337 0 6 762 44
00000.M2TS 4623 (0x120F) 0x90 PGS eng (English) 6343,337 5 4 080 278 32 147
00000.M2TS 4624 (0x1210) 0x90 PGS zho (Chinese) 6343,337 0 6 762 44
00000.M2TS 4625 (0x1211) 0x90 PGS kor (Korean) 6343,337 0 6 762 44
00000.M2TS 4626 (0x1212) 0x90 PGS eng (English) 6343,337 7 5 576 491 47 795
00000.M2TS 4627 (0x1213) 0x90 PGS zho (Chinese) 6343,337 0 6 762 44
00000.M2TS 4628 (0x1214) 0x90 PGS kor (Korean) 6343,337 0 6 762 44
00000.M2TS 4629 (0x1215) 0x90 PGS eng (English) 6343,337 0 313 644 1 816
00000.M2TS 4630 (0x1216) 0x90 PGS pol (Polish) 6343,337 0 6 762 44
00000.M2TS 4631 (0x1217) 0x90 PGS rus (Russian) 6343,337 1 757 758 4 351 






The Lord of the Rings: The Two Towers

DISC INFO:

Disc Title: DISC1
Disc Size: 34 879 154 941 bytes
Protection: AACS
BD-Java: Yes
BDInfo: 0.5.6

PLAYLIST REPORT:

Name: 00100.MPLS
Length: 1:46:39 (h:m:s)
Size: 34 541 506 560 bytes
Total Bitrate: 43,18 Mbps

VIDEO:

Codec Bitrate Description
----- ------- -----------
MPEG-4 AVC Video 29894 kbps 1080p / 23,976 fps / 16:9 / High Profile 4.1

AUDIO:

Codec Language Bitrate Description
----- -------- ------- -----------
DTS-HD Master Audio English 4430 kbps 6.1 / 48 kHz / 4430 kbps / 24-bit (DTS Core: 6.1-ES / 48 kHz / 1509 kbps / 24-bit)
DTS-HD Master Audio Russian 4442 kbps 6.1 / 48 kHz / 4442 kbps / 24-bit (DTS Core: 6.1-ES / 48 kHz / 1509 kbps / 24-bit)
Dolby Digital Audio Russian 448 kbps 5.1 / 48 kHz / 448 kbps / DN -4dB
Dolby Digital EX Audio Russian 448 kbps 5.1-EX / 48 kHz / 448 kbps / DN -4dB
Dolby Digital Audio English 192 kbps 2.0 / 48 kHz / 192 kbps / DN -4dB / Dolby Surround
Dolby Digital Audio English 192 kbps 2.0 / 48 kHz / 192 kbps / DN -4dB / Dolby Surround
Dolby Digital Audio English 192 kbps 2.0 / 48 kHz / 192 kbps / DN -4dB / Dolby Surround
Dolby Digital Audio English 192 kbps 2.0 / 48 kHz / 192 kbps / DN -4dB / Dolby Surround

SUBTITLES:

Codec Language Bitrate Description
----- -------- ------- -----------
Presentation Graphics English 22,464 kbps
Presentation Graphics English 4,628 kbps
Presentation Graphics English 6,723 kbps
Presentation Graphics English 0,050 kbps
Presentation Graphics English 7,459 kbps
Presentation Graphics English 6,480 kbps
Presentation Graphics Chinese 18,511 kbps
Presentation Graphics Chinese 17,086 kbps
Presentation Graphics Chinese 0,008 kbps
Presentation Graphics Chinese 0,008 kbps
Presentation Graphics Chinese 0,008 kbps
Presentation Graphics Chinese 0,008 kbps
Presentation Graphics Czech 18,656 kbps
Presentation Graphics Hebrew 15,190 kbps
Presentation Graphics Korean 16,821 kbps
Presentation Graphics Korean 0,008 kbps
Presentation Graphics Korean 0,008 kbps
Presentation Graphics Korean 0,008 kbps
Presentation Graphics Korean 0,008 kbps
Presentation Graphics Polish 18,347 kbps
Presentation Graphics Polish 0,008 kbps
Presentation Graphics Russian 26,057 kbps
Presentation Graphics Russian 26,352 kbps
Presentation Graphics Russian 0,251 kbps

FILES:

Name Time In Length Size Total Bitrate
---- ------- ------ ---- -------------
00004.M2TS 0:00:00.000 1:46:39.184 34 541 506 560 43 182

CHAPTERS:

Number Time In Length Avg Video Rate Max 1-Sec Rate Max 1-Sec Time Max 5-Sec Rate Max 5-Sec Time Max 10Sec Rate Max 10Sec Time Avg Frame Size Max Frame Size Max Frame Time
------ ------- ------ -------------- -------------- -------------- -------------- -------------- -------------- -------------- -------------- -------------- --------------
1 0:00:00.000 0:04:08.748 26 857 kbps 57 368 kbps 00:00:03.753 36 538 kbps 00:00:03.753 34 058 kbps 00:00:03.753 139 995 bytes 496 074 bytes 00:00:03.962
2 0:04:08.748 0:02:02.080 29 549 kbps 39 547 kbps 00:04:37.652 33 769 kbps 00:04:43.449 32 011 kbps 00:05:04.762 154 052 bytes 491 627 bytes 00:06:10.828
3 0:06:10.828 0:08:34.138 30 498 kbps 45 653 kbps 00:06:55.123 35 528 kbps 00:08:05.568 34 222 kbps 00:11:32.108 159 003 bytes 524 438 bytes 00:06:12.455
4 0:14:44.967 0:02:21.641 32 737 kbps 45 786 kbps 00:15:17.041 35 566 kbps 00:17:00.394 35 026 kbps 00:15:16.665 170 674 bytes 476 942 bytes 00:17:05.983
5 0:17:06.608 0:02:11.339 29 882 kbps 38 856 kbps 00:18:19.264 33 210 kbps 00:17:42.394 32 595 kbps 00:17:36.805 155 790 bytes 495 805 bytes 00:19:04.309
6 0:19:17.948 0:03:49.145 30 495 kbps 44 098 kbps 00:20:45.244 36 333 kbps 00:21:57.941 34 224 kbps 00:21:52.894 158 987 bytes 428 941 bytes 00:22:59.503
7 0:23:07.094 0:00:51.217 31 012 kbps 38 161 kbps 00:23:44.589 33 500 kbps 00:23:16.478 32 797 kbps 00:23:15.060 161 681 bytes 332 231 bytes 00:23:29.908
8 0:23:58.311 0:03:10.732 29 686 kbps 44 120 kbps 00:25:55.887 33 891 kbps 00:24:24.588 32 876 kbps 00:24:25.297 154 767 bytes 385 527 bytes 00:24:50.488
9 0:27:09.044 0:00:54.137 30 182 kbps 39 468 kbps 00:27:54.464 33 872 kbps 00:27:21.640 32 202 kbps 00:27:19.554 157 356 bytes 422 812 bytes 00:27:41.326
10 0:28:03.181 0:03:35.048 29 300 kbps 43 562 kbps 00:29:16.755 32 976 kbps 00:29:40.695 31 810 kbps 00:29:40.487 152 755 bytes 469 013 bytes 00:28:11.356
11 0:31:38.229 0:04:07.288 31 178 kbps 39 567 kbps 00:34:03.499 36 212 kbps 00:35:22.286 34 303 kbps 00:35:18.825 162 550 bytes 504 572 bytes 00:35:32.130
12 0:35:45.518 0:02:32.360 30 770 kbps 44 498 kbps 00:37:40.549 34 921 kbps 00:37:01.928 33 288 kbps 00:37:37.755 160 419 bytes 513 822 bytes 00:36:37.403
13 0:38:17.878 0:03:29.918 27 557 kbps 38 610 kbps 00:41:40.122 31 367 kbps 00:39:13.517 30 109 kbps 00:38:54.707 143 670 bytes 461 750 bytes 00:40:36.100
14 0:41:47.796 0:09:01.958 29 066 kbps 48 495 kbps 00:46:29.495 36 982 kbps 00:46:29.745 35 861 kbps 00:46:29.661 151 539 bytes 526 479 bytes 00:41:50.508
15 0:50:49.755 0:07:29.657 30 132 kbps 45 697 kbps 00:54:40.819 36 018 kbps 00:54:40.610 34 316 kbps 00:52:45.120 157 094 bytes 491 992 bytes 00:53:02.304
16 0:58:19.412 0:02:20.765 28 910 kbps 36 703 kbps 01:00:09.689 32 688 kbps 00:58:41.643 31 963 kbps 00:58:41.392 150 722 bytes 481 794 bytes 01:00:20.700
17 1:00:40.178 0:02:08.127 29 572 kbps 38 636 kbps 01:02:44.177 32 638 kbps 01:01:37.443 31 663 kbps 01:02:08.307 154 174 bytes 351 215 bytes 01:00:47.393
18 1:02:48.306 0:05:17.692 30 029 kbps 39 747 kbps 01:07:27.209 34 116 kbps 01:05:53.074 32 944 kbps 01:06:57.596 156 559 bytes 666 002 bytes 01:04:56.183
19 1:08:05.998 0:04:35.733 29 722 kbps 42 371 kbps 01:11:07.930 33 941 kbps 01:10:13.417 33 254 kbps 01:10:13.334 154 955 bytes 538 334 bytes 01:11:02.758
20 1:12:41.732 0:11:35.611 30 933 kbps 44 542 kbps 01:19:11.163 38 282 kbps 01:20:34.454 36 141 kbps 01:20:34.454 161 271 bytes 495 455 bytes 01:15:52.798
21 1:24:17.343 0:01:24.292 28 647 kbps 33 291 kbps 01:25:08.186 30 870 kbps 01:24:38.656 30 227 kbps 01:24:33.651 149 350 bytes 470 134 bytes 01:24:38.114
22 1:25:41.636 0:01:52.695 28 421 kbps 35 797 kbps 01:25:51.980 30 901 kbps 01:27:24.948 30 340 kbps 01:25:51.771 148 172 bytes 519 988 bytes 01:27:17.774
23 1:27:34.332 0:03:11.191 30 232 kbps 38 006 kbps 01:29:31.657 33 630 kbps 01:29:28.696 32 262 kbps 01:28:19.210 157 616 bytes 441 030 bytes 01:30:41.978
24 1:30:45.523 0:01:45.063 31 862 kbps 40 049 kbps 01:30:51.446 34 554 kbps 01:30:48.234 33 424 kbps 01:30:50.736 166 113 bytes 326 855 bytes 01:32:30.586
25 1:32:30.586 0:02:00.453 28 735 kbps 36 878 kbps 01:33:37.236 31 679 kbps 01:33:37.069 30 602 kbps 01:33:36.902 149 813 bytes 420 135 bytes 01:34:06.974
26 1:34:31.040 0:01:26.002 29 683 kbps 38 254 kbps 01:35:14.667 33 121 kbps 01:35:03.197 32 090 kbps 01:35:01.445 154 751 bytes 298 002 bytes 01:35:57.001
27 1:35:57.042 0:01:05.273 29 527 kbps 39 495 kbps 01:36:28.449 31 838 kbps 01:36:28.449 31 320 kbps 01:36:37.208 153 943 bytes 497 678 bytes 01:36:21.692
28 1:37:02.316 0:01:41.643 30 551 kbps 38 343 kbps 01:37:05.277 35 336 kbps 01:37:05.069 33 861 kbps 01:37:02.900 159 281 bytes 467 375 bytes 01:37:43.649
29 1:38:43.959 0:02:30.859 28 543 kbps 37 314 kbps 01:40:16.301 31 442 kbps 01:38:45.544 31 013 kbps 01:38:45.294 148 811 bytes 452 288 bytes 01:40:57.760
30 1:41:14.818 0:05:24.365 30 531 kbps 43 538 kbps 01:41:44.556 35 946 kbps 01:41:41.178 34 034 kbps 01:44:41.275 159 214 bytes 541 191 bytes 01:43:13.228

STREAM DIAGNOSTICS:

File PID Type Codec Language Seconds Bitrate Bytes Packets
---- --- ---- ----- -------- -------------- -------------- ------------- -----
00004.M2TS 4113 (0x1011) 0x1B AVC 6399,101 29 895 23 912 429 788 130 049 087
00004.M2TS 4352 (0x1100) 0x86 DTS-HD MA eng (English) 6399,101 4 430 3 543 443 600 20 255 766
00004.M2TS 4353 (0x1101) 0x81 AC3 rus (Russian) 6399,101 448 358 376 704 1 999 870
00004.M2TS 4354 (0x1102) 0x86 DTS-HD MA rus (Russian) 6399,101 4 442 3 553 222 780 20 308 729
00004.M2TS 4355 (0x1103) 0x81 AC3 eng (English) 6399,101 192 153 590 016 999 935
00004.M2TS 4356 (0x1104) 0x81 AC3 eng (English) 6399,101 192 153 590 016 999 935
00004.M2TS 4357 (0x1105) 0x81 AC3 eng (English) 6399,101 192 153 590 016 999 935
00004.M2TS 4358 (0x1106) 0x81 AC3 eng (English) 6399,101 192 153 590 016 999 935
00004.M2TS 4359 (0x1107) 0x81 AC3-EX rus (Russian) 6399,101 448 358 376 704 1 999 870
00004.M2TS 4608 (0x1200) 0x90 PGS eng (English) 6399,101 22 17 969 138 104 969
00004.M2TS 4609 (0x1201) 0x90 PGS zho (Chinese) 6399,101 19 14 806 640 87 218
00004.M2TS 4610 (0x1202) 0x90 PGS kor (Korean) 6399,101 17 13 455 480 79 881
00004.M2TS 4611 (0x1203) 0x90 PGS zho (Chinese) 6399,101 17 13 666 743 81 038
00004.M2TS 4612 (0x1204) 0x90 PGS ces (Czech) 6399,101 19 14 922 927 87 753
00004.M2TS 4613 (0x1205) 0x90 PGS heb (Hebrew) 6399,101 15 12 150 482 72 793
00004.M2TS 4614 (0x1206) 0x90 PGS pol (Polish) 6399,101 18 14 675 838 86 515
00004.M2TS 4615 (0x1207) 0x90 PGS rus (Russian) 6399,101 26 20 842 595 120 935
00004.M2TS 4616 (0x1208) 0x90 PGS rus (Russian) 6399,101 26 21 078 858 122 287
00004.M2TS 4617 (0x1209) 0x90 PGS eng (English) 6399,101 6 5 183 518 41 662
00004.M2TS 4618 (0x120A) 0x90 PGS zho (Chinese) 6399,101 0 6 762 44
00004.M2TS 4619 (0x120B) 0x90 PGS kor (Korean) 6399,101 0 6 762 44
00004.M2TS 4620 (0x120C) 0x90 PGS eng (English) 6399,101 7 5 966 638 45 683
00004.M2TS 4621 (0x120D) 0x90 PGS zho (Chinese) 6399,101 0 6 762 44
00004.M2TS 4622 (0x120E) 0x90 PGS kor (Korean) 6399,101 0 6 762 44
00004.M2TS 4623 (0x120F) 0x90 PGS eng (English) 6399,101 5 3 701 723 29 547
00004.M2TS 4624 (0x1210) 0x90 PGS zho (Chinese) 6399,101 0 6 762 44
00004.M2TS 4625 (0x1211) 0x90 PGS kor (Korean) 6399,101 0 6 762 44
00004.M2TS 4626 (0x1212) 0x90 PGS eng (English) 6399,101 7 5 377 559 46 035
00004.M2TS 4627 (0x1213) 0x90 PGS zho (Chinese) 6399,101 0 6 762 44
00004.M2TS 4628 (0x1214) 0x90 PGS kor (Korean) 6399,101 0 6 762 44
00004.M2TS 4629 (0x1215) 0x90 PGS eng (English) 6399,101 0 40 062 239
00004.M2TS 4630 (0x1216) 0x90 PGS pol (Polish) 6399,101 0 6 762 44
00004.M2TS 4631 (0x1217) 0x90 PGS rus (Russian) 6399,101 0 200 973 1 173 







The Lord of the Rings: The Return of the King 


DISC INFO:

Disc Title: DISC1
Disc Size: 42 018 785 091 bytes
Protection: AACS
BD-Java: Yes
BDInfo: 0.5.6

PLAYLIST REPORT:

Name: 00100.MPLS
Length: 2:07:40 (h:m:s)
Size: 41 407 770 624 bytes
Total Bitrate: 43,24 Mbps

VIDEO:

Codec Bitrate Description
----- ------- -----------
MPEG-4 AVC Video 30236 kbps 1080p / 23,976 fps / 16:9 / High Profile 4.1

AUDIO:

Codec Language Bitrate Description
----- -------- ------- -----------
DTS-HD Master Audio English 4476 kbps 6.1 / 48 kHz / 4476 kbps / 24-bit (DTS Core: 6.1-ES / 48 kHz / 1509 kbps / 24-bit)
DTS-HD Master Audio Russian 4496 kbps 6.1 / 48 kHz / 4496 kbps / 24-bit (DTS Core: 6.1-ES / 48 kHz / 1509 kbps / 24-bit)
Dolby Digital Audio Russian 448 kbps 5.1 / 48 kHz / 448 kbps / DN -4dB
Dolby Digital EX Audio Russian 448 kbps 5.1-EX / 48 kHz / 448 kbps / DN -4dB
Dolby Digital Audio English 128 kbps 2.0 / 48 kHz / 128 kbps
Dolby Digital Audio English 128 kbps 2.0 / 48 kHz / 128 kbps
Dolby Digital Audio English 128 kbps 2.0 / 48 kHz / 128 kbps
Dolby Digital Audio English 128 kbps 2.0 / 48 kHz / 128 kbps

SUBTITLES:

Codec Language Bitrate Description
----- -------- ------- -----------
Presentation Graphics English 21,880 kbps
Presentation Graphics English 9,446 kbps
Presentation Graphics English 9,945 kbps
Presentation Graphics English 8,623 kbps
Presentation Graphics English 5,429 kbps
Presentation Graphics English 0,028 kbps
Presentation Graphics Chinese 17,750 kbps
Presentation Graphics Chinese 17,915 kbps
Presentation Graphics Chinese 0,007 kbps
Presentation Graphics Chinese 0,007 kbps
Presentation Graphics Chinese 0,007 kbps
Presentation Graphics Chinese 0,007 kbps
Presentation Graphics Czech 17,695 kbps
Presentation Graphics Korean 15,836 kbps
Presentation Graphics Korean 0,007 kbps
Presentation Graphics Korean 0,007 kbps
Presentation Graphics Korean 0,007 kbps
Presentation Graphics Korean 0,007 kbps
Presentation Graphics Polish 17,744 kbps
Presentation Graphics Polish 0,007 kbps
Presentation Graphics Russian 24,217 kbps
Presentation Graphics Russian 24,218 kbps
Presentation Graphics Russian 0,059 kbps

FILES:

Name Time In Length Size Total Bitrate
---- ------- ------ ---- -------------
00000.M2TS 0:00:00.000 2:07:40.235 41 407 770 624 43 244

CHAPTERS:

Number Time In Length Avg Video Rate Max 1-Sec Rate Max 1-Sec Time Max 5-Sec Rate Max 5-Sec Time Max 10Sec Rate Max 10Sec Time Avg Frame Size Max Frame Size Max Frame Time
------ ------- ------ -------------- -------------- -------------- -------------- -------------- -------------- -------------- -------------- -------------- --------------
1 0:00:00.000 0:06:24.342 28 045 kbps 49 101 kbps 00:05:48.848 35 914 kbps 00:01:28.046 35 391 kbps 00:01:27.545 146 198 bytes 670 722 bytes 00:05:56.439
2 0:06:24.342 0:02:57.051 30 149 kbps 41 978 kbps 00:07:33.452 36 307 kbps 00:07:29.448 33 123 kbps 00:07:24.485 157 184 bytes 610 635 bytes 00:06:26.803
3 0:09:21.394 0:02:00.453 31 120 kbps 39 493 kbps 00:09:50.715 35 022 kbps 00:09:48.296 33 587 kbps 00:10:48.981 162 247 bytes 537 924 bytes 00:10:16.949
4 0:11:21.847 0:07:01.462 30 935 kbps 42 810 kbps 00:17:22.207 36 084 kbps 00:17:39.767 34 356 kbps 00:17:39.850 161 282 bytes 475 714 bytes 00:12:03.723
5 0:18:23.310 0:04:41.698 30 694 kbps 40 620 kbps 00:20:31.188 34 605 kbps 00:20:31.188 33 783 kbps 00:20:31.146 160 026 bytes 524 571 bytes 00:18:31.026
6 0:23:05.008 0:03:58.321 29 883 kbps 40 798 kbps 00:23:09.846 34 902 kbps 00:23:13.225 34 109 kbps 00:23:08.845 155 796 bytes 483 689 bytes 00:23:30.951
7 0:27:03.330 0:01:57.367 30 193 kbps 41 735 kbps 00:28:06.142 33 333 kbps 00:28:05.600 32 116 kbps 00:28:05.600 157 412 bytes 417 539 bytes 00:27:43.620
8 0:29:00.697 0:08:05.735 29 998 kbps 48 112 kbps 00:30:52.600 35 746 kbps 00:30:52.684 33 743 kbps 00:30:48.513 156 394 bytes 570 506 bytes 00:36:45.995
9 0:37:06.432 0:02:56.134 29 644 kbps 43 617 kbps 00:38:17.378 34 391 kbps 00:37:34.794 33 450 kbps 00:37:30.289 154 549 bytes 556 412 bytes 00:37:14.774
10 0:40:02.566 0:02:00.662 30 212 kbps 40 761 kbps 00:41:19.101 34 822 kbps 00:41:48.631 33 972 kbps 00:41:47.922 157 511 bytes 521 491 bytes 00:41:43.876
11 0:42:03.229 0:05:48.973 29 858 kbps 44 491 kbps 00:42:19.119 35 401 kbps 00:42:15.115 34 071 kbps 00:42:10.110 155 665 bytes 547 213 bytes 00:42:49.900
12 0:47:52.202 0:02:26.437 30 917 kbps 40 798 kbps 00:50:05.544 34 784 kbps 00:50:04.292 34 435 kbps 00:50:05.544 161 188 bytes 706 762 bytes 00:48:47.424
13 0:50:18.640 0:02:00.119 31 504 kbps 39 932 kbps 00:51:13.445 34 322 kbps 00:51:45.435 33 583 kbps 00:52:04.121 164 247 bytes 668 790 bytes 00:51:48.146
14 0:52:18.760 0:03:16.571 30 225 kbps 52 132 kbps 00:53:52.479 36 320 kbps 00:53:52.437 34 180 kbps 00:53:52.395 157 577 bytes 528 462 bytes 00:54:39.150
15 0:55:35.332 0:04:01.074 29 804 kbps 44 204 kbps 00:56:36.476 36 015 kbps 00:56:05.445 33 732 kbps 00:56:36.476 155 387 bytes 501 063 bytes 00:56:49.697
16 0:59:36.406 0:00:47.297 27 908 kbps 35 287 kbps 00:59:47.917 30 411 kbps 00:59:44.664 29 055 kbps 00:59:44.581 145 499 bytes 449 944 bytes 01:00:01.764
17 1:00:23.703 0:00:26.901 28 695 kbps 35 677 kbps 01:00:40.678 30 803 kbps 01:00:39.052 29 739 kbps 01:00:40.595 149 604 bytes 473 353 bytes 01:00:27.040
18 1:00:50.605 0:03:39.469 30 072 kbps 43 368 kbps 01:03:32.475 36 855 kbps 01:03:28.429 35 479 kbps 01:01:57.714 156 779 bytes 482 080 bytes 01:01:59.507
19 1:04:30.074 0:02:45.957 28 332 kbps 43 801 kbps 01:06:36.951 35 194 kbps 01:06:36.951 34 228 kbps 01:06:36.826 147 709 bytes 516 513 bytes 01:07:11.986
20 1:07:16.031 0:03:19.282 30 500 kbps 40 365 kbps 01:10:24.929 36 960 kbps 01:10:24.929 36 445 kbps 01:10:22.426 159 015 bytes 493 540 bytes 01:09:06.642
21 1:10:35.314 0:04:19.509 32 548 kbps 45 912 kbps 01:10:58.420 37 081 kbps 01:13:03.212 36 460 kbps 01:13:45.129 169 689 bytes 514 728 bytes 01:13:54.847
22 1:14:54.823 0:02:27.146 29 184 kbps 38 664 kbps 01:16:18.907 34 575 kbps 01:16:18.907 32 024 kbps 01:16:16.863 152 150 bytes 445 565 bytes 01:16:30.335
23 1:17:21.970 0:01:59.828 29 100 kbps 37 441 kbps 01:18:02.094 34 576 kbps 01:18:00.217 32 723 kbps 01:18:00.217 151 713 bytes 519 575 bytes 01:17:33.065
24 1:19:21.798 0:00:39.289 30 410 kbps 38 609 kbps 01:19:45.071 32 766 kbps 01:19:45.071 32 231 kbps 01:19:45.071 158 543 bytes 516 249 bytes 01:19:45.113
25 1:20:01.087 0:01:25.710 28 377 kbps 36 359 kbps 01:20:24.986 29 927 kbps 01:20:42.462 29 268 kbps 01:20:42.379 147 943 bytes 486 479 bytes 01:20:24.194
26 1:21:26.798 0:02:22.141 29 524 kbps 38 056 kbps 01:23:28.461 31 472 kbps 01:23:24.457 30 760 kbps 01:23:19.452 153 925 bytes 433 743 bytes 01:21:30.135
27 1:23:48.940 0:05:19.652 31 455 kbps 44 002 kbps 01:25:52.897 35 076 kbps 01:25:39.843 33 882 kbps 01:28:10.952 163 993 bytes 471 733 bytes 01:29:07.800
28 1:29:08.593 0:04:48.997 31 159 kbps 43 775 kbps 01:33:17.592 37 608 kbps 01:32:40.513 34 852 kbps 01:32:39.470 162 451 bytes 617 017 bytes 01:33:44.660
29 1:33:57.590 0:04:10.458 30 681 kbps 39 591 kbps 01:34:18.778 34 140 kbps 01:37:23.420 33 719 kbps 01:37:22.920 159 955 bytes 666 250 bytes 01:34:49.600
30 1:38:08.048 0:04:41.656 29 638 kbps 49 255 kbps 01:38:34.825 36 091 kbps 01:38:30.738 35 115 kbps 01:38:33.115 154 521 bytes 468 581 bytes 01:38:26.901
31 1:42:49.705 0:02:44.539 29 344 kbps 37 266 kbps 01:44:24.132 34 224 kbps 01:44:34.393 33 492 kbps 01:44:33.600 152 984 bytes 438 411 bytes 01:44:31.223
32 1:45:34.244 0:01:23.208 29 959 kbps 41 282 kbps 01:46:13.533 34 288 kbps 01:46:13.533 34 026 kbps 01:46:13.158 156 193 bytes 433 225 bytes 01:46:57.411
33 1:46:57.452 0:02:26.980 29 857 kbps 42 490 kbps 01:48:42.474 35 220 kbps 01:48:40.639 33 533 kbps 01:47:18.265 155 662 bytes 500 079 bytes 01:48:08.190
34 1:49:24.432 0:01:45.563 30 104 kbps 40 458 kbps 01:49:24.432 34 180 kbps 01:50:21.031 32 347 kbps 01:49:24.432 156 947 bytes 481 978 bytes 01:50:58.818
35 1:51:09.996 0:07:29.699 30 571 kbps 45 239 kbps 01:52:12.434 36 158 kbps 01:54:09.551 34 996 kbps 01:54:09.467 159 382 bytes 556 026 bytes 01:58:39.403
36 1:58:39.695 0:09:00.539 31 178 kbps 45 849 kbps 02:02:28.841 36 458 kbps 02:01:25.778 34 696 kbps 02:05:58.092 162 570 bytes 606 456 bytes 01:59:35.376

STREAM DIAGNOSTICS:

File PID Type Codec Language Seconds Bitrate Bytes Packets
---- --- ---- ----- -------- -------------- -------------- ------------- -----
00000.M2TS 4113 (0x1011) 0x1B AVC 7660,153 30 236 28 951 646 993 157 453 704
00000.M2TS 4352 (0x1100) 0x86 DTS-HD MA eng (English) 7660,153 4 476 4 285 490 416 24 484 327
00000.M2TS 4353 (0x1101) 0x81 AC3 rus (Russian) 7660,153 448 429 035 264 2 394 170
00000.M2TS 4354 (0x1102) 0x86 DTS-HD MA rus (Russian) 7660,153 4 496 4 304 869 856 24 590 092
00000.M2TS 4355 (0x1103) 0x81 AC3 eng (English) 7660,153 128 122 582 528 718 257
00000.M2TS 4356 (0x1104) 0x81 AC3 eng (English) 7660,153 128 122 582 016 718 254
00000.M2TS 4357 (0x1105) 0x81 AC3 eng (English) 7660,153 128 122 582 528 718 257
00000.M2TS 4358 (0x1106) 0x81 AC3 eng (English) 7660,153 128 122 581 504 718 251
00000.M2TS 4359 (0x1107) 0x81 AC3-EX rus (Russian) 7660,153 448 429 035 264 2 394 170
00000.M2TS 4608 (0x1200) 0x90 PGS eng (English) 7660,153 22 20 950 788 122 292
00000.M2TS 4609 (0x1201) 0x90 PGS zho (Chinese) 7660,153 18 16 996 175 99 821
00000.M2TS 4610 (0x1202) 0x90 PGS kor (Korean) 7660,153 16 15 163 110 89 844
00000.M2TS 4611 (0x1203) 0x90 PGS zho (Chinese) 7660,153 18 17 153 905 100 675
00000.M2TS 4612 (0x1204) 0x90 PGS ces (Czech) 7660,153 18 16 943 384 99 452
00000.M2TS 4613 (0x1205) 0x90 PGS pol (Polish) 7660,153 18 16 990 643 99 578
00000.M2TS 4614 (0x1206) 0x90 PGS rus (Russian) 7660,153 24 23 188 396 134 439
00000.M2TS 4615 (0x1207) 0x90 PGS rus (Russian) 7660,153 24 23 189 895 134 458
00000.M2TS 4616 (0x1208) 0x90 PGS eng (English) 7660,153 5 5 198 148 41 852
00000.M2TS 4617 (0x1209) 0x90 PGS zho (Chinese) 7660,153 0 6 762 44
00000.M2TS 4618 (0x120A) 0x90 PGS kor (Korean) 7660,153 0 6 762 44
00000.M2TS 4619 (0x120B) 0x90 PGS eng (English) 7660,153 9 9 044 584 69 185
00000.M2TS 4620 (0x120C) 0x90 PGS zho (Chinese) 7660,153 0 6 762 44
00000.M2TS 4621 (0x120D) 0x90 PGS kor (Korean) 7660,153 0 6 762 44
00000.M2TS 4622 (0x120E) 0x90 PGS eng (English) 7660,153 9 8 256 341 65 086
00000.M2TS 4623 (0x120F) 0x90 PGS zho (Chinese) 7660,153 0 6 762 44
00000.M2TS 4624 (0x1210) 0x90 PGS kor (Korean) 7660,153 0 6 762 44
00000.M2TS 4625 (0x1211) 0x90 PGS eng (English) 7660,153 10 9 522 742 80 230
00000.M2TS 4626 (0x1212) 0x90 PGS zho (Chinese) 7660,153 0 6 762 44
00000.M2TS 4627 (0x1213) 0x90 PGS kor (Korean) 7660,153 0 6 762 44
00000.M2TS 4628 (0x1214) 0x90 PGS eng (English) 7660,153 0 26 642 159
00000.M2TS 4629 (0x1215) 0x90 PGS pol (Polish) 7660,153 0 6 762 44
00000.M2TS 4630 (0x1216) 0x90 PGS rus (Russian) 7660,153 0 56 412 329 		